<svg xmlns="http://www.w3.org/2000/svg" xmlns:xlink="http://www.w3.org/1999/xlink" width="500" zoomAndPan="magnify" viewBox="0 0 375 374.999991" height="500" preserveAspectRatio="xMidYMid meet" version="1.0"><defs fill="#9da4ae"><g/><clipPath id="b1598fe911" fill="#9da4ae"><path d="M 135.324219 115.902344 L 239.574219 115.902344 L 239.574219 203.652344 L 135.324219 203.652344 Z M 135.324219 115.902344 " clip-rule="nonzero" fill="#9da4ae"/></clipPath></defs><g fill="#9da4ae" fill-opacity="1"><g transform="translate(100.474019, 235.18683)"><g><path d="M 0.828125 -25.65625 L 19.390625 -25.65625 L 19.390625 -20.65625 L 12.84375 -20.65625 L 12.84375 0 L 7.375 0 L 7.375 -20.65625 L 0.828125 -20.65625 Z M 0.828125 -25.65625 " fill="#9da4ae"/></g></g></g><g fill="#9da4ae" fill-opacity="1"><g transform="translate(121.752417, 235.18683)"><g><path d="M 6.546875 -15.453125 C 6.785156 -15.835938 7.0625 -16.203125 7.375 -16.546875 C 7.695312 -16.898438 8.070312 -17.210938 8.5 -17.484375 C 8.9375 -17.765625 9.429688 -17.988281 9.984375 -18.15625 C 10.535156 -18.332031 11.164062 -18.421875 11.875 -18.421875 C 12.6875 -18.421875 13.640625 -18.273438 14.734375 -17.984375 L 14.265625 -13.53125 C 13.992188 -13.582031 13.726562 -13.644531 13.46875 -13.71875 C 13.25 -13.757812 13.003906 -13.796875 12.734375 -13.828125 C 12.472656 -13.867188 12.234375 -13.890625 12.015625 -13.890625 C 11.242188 -13.890625 10.523438 -13.78125 9.859375 -13.5625 C 9.191406 -13.351562 8.617188 -13.054688 8.140625 -12.671875 C 7.660156 -12.285156 7.273438 -11.816406 6.984375 -11.265625 C 6.691406 -10.722656 6.546875 -10.140625 6.546875 -9.515625 L 6.546875 0 L 1.5625 0 L 1.5625 -17.953125 L 6.078125 -17.953125 Z M 6.546875 -15.453125 " fill="#9da4ae"/></g></g></g><g fill="#9da4ae" fill-opacity="1"><g transform="translate(137.711258, 235.18683)"><g><path d="M 20.40625 -17.953125 L 20.40625 0 L 16.109375 0 L 15.59375 -1.921875 C 14.894531 -0.972656 14.054688 -0.34375 13.078125 -0.03125 C 12.097656 0.28125 11.082031 0.4375 10.03125 0.4375 C 8.75 0.4375 7.570312 0.191406 6.5 -0.296875 C 5.425781 -0.796875 4.488281 -1.472656 3.6875 -2.328125 C 2.894531 -3.191406 2.273438 -4.195312 1.828125 -5.34375 C 1.378906 -6.488281 1.15625 -7.710938 1.15625 -9.015625 C 1.15625 -10.316406 1.378906 -11.539062 1.828125 -12.6875 C 2.273438 -13.832031 2.894531 -14.832031 3.6875 -15.6875 C 4.488281 -16.539062 5.425781 -17.210938 6.5 -17.703125 C 7.570312 -18.203125 8.75 -18.453125 10.03125 -18.453125 C 11.1875 -18.453125 12.242188 -18.269531 13.203125 -17.90625 C 14.171875 -17.550781 14.96875 -16.972656 15.59375 -16.171875 L 16.109375 -17.953125 Z M 15.421875 -8.9375 C 15.421875 -9.875 15.289062 -10.660156 15.03125 -11.296875 C 14.78125 -11.941406 14.441406 -12.460938 14.015625 -12.859375 C 13.597656 -13.265625 13.101562 -13.554688 12.53125 -13.734375 C 11.96875 -13.910156 11.363281 -14 10.71875 -14 C 10.0625 -14 9.445312 -13.863281 8.875 -13.59375 C 8.3125 -13.332031 7.8125 -12.976562 7.375 -12.53125 C 6.945312 -12.09375 6.609375 -11.566406 6.359375 -10.953125 C 6.117188 -10.335938 6 -9.691406 6 -9.015625 C 6 -8.316406 6.117188 -7.664062 6.359375 -7.0625 C 6.609375 -6.457031 6.945312 -5.929688 7.375 -5.484375 C 7.8125 -5.035156 8.3125 -4.675781 8.875 -4.40625 C 9.445312 -4.144531 10.0625 -4.015625 10.71875 -4.015625 C 12.019531 -4.015625 13.117188 -4.414062 14.015625 -5.21875 C 14.921875 -6.03125 15.390625 -7.269531 15.421875 -8.9375 Z M 15.421875 -8.9375 " fill="#9da4ae"/></g></g></g><g fill="#9da4ae" fill-opacity="1"><g transform="translate(160.762848, 235.18683)"><g><path d="M 3.046875 -19.46875 C 3.046875 -20.71875 3.226562 -21.796875 3.59375 -22.703125 C 3.96875 -23.609375 4.46875 -24.359375 5.09375 -24.953125 C 5.726562 -25.546875 6.453125 -25.976562 7.265625 -26.25 C 8.085938 -26.53125 8.957031 -26.671875 9.875 -26.671875 C 10.4375 -26.671875 10.992188 -26.617188 11.546875 -26.515625 C 12.097656 -26.421875 12.648438 -26.28125 13.203125 -26.09375 L 12.8125 -22.4375 L 11.609375 -22.609375 C 11.421875 -22.640625 11.25 -22.660156 11.09375 -22.671875 C 10.9375 -22.679688 10.785156 -22.6875 10.640625 -22.6875 C 9.722656 -22.6875 9.050781 -22.460938 8.625 -22.015625 C 8.207031 -21.566406 8 -20.921875 8 -20.078125 L 8 -17.953125 L 12.8125 -17.953125 L 12.8125 -13.5 L 8 -13.5 L 8 0 L 3.046875 0 L 3.046875 -13.5 L 0.6875 -13.5 L 0.6875 -16.140625 L 3.046875 -17.953125 Z M 3.046875 -19.46875 " fill="#9da4ae"/></g></g></g><g fill="#9da4ae" fill-opacity="1"><g transform="translate(175.527499, 235.18683)"><g><path d="M 3.046875 -19.46875 C 3.046875 -20.71875 3.226562 -21.796875 3.59375 -22.703125 C 3.96875 -23.609375 4.46875 -24.359375 5.09375 -24.953125 C 5.726562 -25.546875 6.453125 -25.976562 7.265625 -26.25 C 8.085938 -26.53125 8.957031 -26.671875 9.875 -26.671875 C 10.4375 -26.671875 10.992188 -26.617188 11.546875 -26.515625 C 12.097656 -26.421875 12.648438 -26.28125 13.203125 -26.09375 L 12.8125 -22.4375 L 11.609375 -22.609375 C 11.421875 -22.640625 11.25 -22.660156 11.09375 -22.671875 C 10.9375 -22.679688 10.785156 -22.6875 10.640625 -22.6875 C 9.722656 -22.6875 9.050781 -22.460938 8.625 -22.015625 C 8.207031 -21.566406 8 -20.921875 8 -20.078125 L 8 -17.953125 L 12.8125 -17.953125 L 12.8125 -13.5 L 8 -13.5 L 8 0 L 3.046875 0 L 3.046875 -13.5 L 0.6875 -13.5 L 0.6875 -16.140625 L 3.046875 -17.953125 Z M 3.046875 -19.46875 " fill="#9da4ae"/></g></g></g><g fill="#9da4ae" fill-opacity="1"><g transform="translate(190.29215, 235.18683)"><g><path d="M 10.453125 -18.453125 C 11.734375 -18.453125 12.941406 -18.203125 14.078125 -17.703125 C 15.210938 -17.210938 16.203125 -16.539062 17.046875 -15.6875 C 17.890625 -14.832031 18.554688 -13.832031 19.046875 -12.6875 C 19.546875 -11.539062 19.796875 -10.316406 19.796875 -9.015625 C 19.796875 -7.710938 19.546875 -6.488281 19.046875 -5.34375 C 18.554688 -4.195312 17.890625 -3.191406 17.046875 -2.328125 C 16.203125 -1.472656 15.210938 -0.796875 14.078125 -0.296875 C 12.941406 0.191406 11.734375 0.4375 10.453125 0.4375 C 9.148438 0.4375 7.929688 0.191406 6.796875 -0.296875 C 5.671875 -0.796875 4.679688 -1.472656 3.828125 -2.328125 C 2.984375 -3.191406 2.3125 -4.195312 1.8125 -5.34375 C 1.320312 -6.488281 1.078125 -7.710938 1.078125 -9.015625 C 1.078125 -10.316406 1.320312 -11.539062 1.8125 -12.6875 C 2.3125 -13.832031 2.984375 -14.832031 3.828125 -15.6875 C 4.679688 -16.539062 5.671875 -17.210938 6.796875 -17.703125 C 7.929688 -18.203125 9.148438 -18.453125 10.453125 -18.453125 Z M 10.453125 -3.9375 C 11.054688 -3.9375 11.617188 -4.054688 12.140625 -4.296875 C 12.660156 -4.546875 13.117188 -4.878906 13.515625 -5.296875 C 13.910156 -5.722656 14.222656 -6.226562 14.453125 -6.8125 C 14.679688 -7.40625 14.796875 -8.066406 14.796875 -8.796875 C 14.796875 -9.515625 14.679688 -10.1875 14.453125 -10.8125 C 14.222656 -11.445312 13.910156 -12 13.515625 -12.46875 C 13.117188 -12.9375 12.660156 -13.304688 12.140625 -13.578125 C 11.617188 -13.859375 11.054688 -14 10.453125 -14 C 9.847656 -14 9.28125 -13.859375 8.75 -13.578125 C 8.226562 -13.304688 7.765625 -12.9375 7.359375 -12.46875 C 6.960938 -12 6.648438 -11.445312 6.421875 -10.8125 C 6.191406 -10.1875 6.078125 -9.515625 6.078125 -8.796875 C 6.078125 -8.066406 6.191406 -7.40625 6.421875 -6.8125 C 6.648438 -6.226562 6.960938 -5.722656 7.359375 -5.296875 C 7.765625 -4.878906 8.226562 -4.546875 8.75 -4.296875 C 9.28125 -4.054688 9.847656 -3.9375 10.453125 -3.9375 Z M 10.453125 -3.9375 " fill="#9da4ae"/></g></g></g><g fill="#9da4ae" fill-opacity="1"><g transform="translate(212.11336, 235.18683)"><g><path d="M 10.453125 -18.453125 C 11.734375 -18.453125 12.941406 -18.203125 14.078125 -17.703125 C 15.210938 -17.210938 16.203125 -16.539062 17.046875 -15.6875 C 17.890625 -14.832031 18.554688 -13.832031 19.046875 -12.6875 C 19.546875 -11.539062 19.796875 -10.316406 19.796875 -9.015625 C 19.796875 -7.710938 19.546875 -6.488281 19.046875 -5.34375 C 18.554688 -4.195312 17.890625 -3.191406 17.046875 -2.328125 C 16.203125 -1.472656 15.210938 -0.796875 14.078125 -0.296875 C 12.941406 0.191406 11.734375 0.4375 10.453125 0.4375 C 9.148438 0.4375 7.929688 0.191406 6.796875 -0.296875 C 5.671875 -0.796875 4.679688 -1.472656 3.828125 -2.328125 C 2.984375 -3.191406 2.3125 -4.195312 1.8125 -5.34375 C 1.320312 -6.488281 1.078125 -7.710938 1.078125 -9.015625 C 1.078125 -10.316406 1.320312 -11.539062 1.8125 -12.6875 C 2.3125 -13.832031 2.984375 -14.832031 3.828125 -15.6875 C 4.679688 -16.539062 5.671875 -17.210938 6.796875 -17.703125 C 7.929688 -18.203125 9.148438 -18.453125 10.453125 -18.453125 Z M 10.453125 -3.9375 C 11.054688 -3.9375 11.617188 -4.054688 12.140625 -4.296875 C 12.660156 -4.546875 13.117188 -4.878906 13.515625 -5.296875 C 13.910156 -5.722656 14.222656 -6.226562 14.453125 -6.8125 C 14.679688 -7.40625 14.796875 -8.066406 14.796875 -8.796875 C 14.796875 -9.515625 14.679688 -10.1875 14.453125 -10.8125 C 14.222656 -11.445312 13.910156 -12 13.515625 -12.46875 C 13.117188 -12.9375 12.660156 -13.304688 12.140625 -13.578125 C 11.617188 -13.859375 11.054688 -14 10.453125 -14 C 9.847656 -14 9.28125 -13.859375 8.75 -13.578125 C 8.226562 -13.304688 7.765625 -12.9375 7.359375 -12.46875 C 6.960938 -12 6.648438 -11.445312 6.421875 -10.8125 C 6.191406 -10.1875 6.078125 -9.515625 6.078125 -8.796875 C 6.078125 -8.066406 6.191406 -7.40625 6.421875 -6.8125 C 6.648438 -6.226562 6.960938 -5.722656 7.359375 -5.296875 C 7.765625 -4.878906 8.226562 -4.546875 8.75 -4.296875 C 9.28125 -4.054688 9.847656 -3.9375 10.453125 -3.9375 Z M 10.453125 -3.9375 " fill="#9da4ae"/></g></g></g><g fill="#9da4ae" fill-opacity="1"><g transform="translate(233.934575, 235.18683)"><g><path d="M 8.109375 -4.421875 L 16.390625 -4.421875 L 16.390625 0 L 1.5625 0 L 1.5625 -4.203125 L 8.9375 -13.5 L 2.25 -13.5 L 2.25 -17.953125 L 16.171875 -17.953125 L 16.171875 -14.625 Z M 8.109375 -4.421875 " fill="#9da4ae"/></g></g></g><g fill="#9da4ae" fill-opacity="1"><g transform="translate(253.005534, 235.18683)"><g><path d="M 10.5 -18.453125 C 11.84375 -18.453125 13.066406 -18.179688 14.171875 -17.640625 C 15.285156 -17.097656 16.238281 -16.382812 17.03125 -15.5 C 17.832031 -14.625 18.453125 -13.613281 18.890625 -12.46875 C 19.328125 -11.320312 19.546875 -10.144531 19.546875 -8.9375 C 19.546875 -8.21875 19.445312 -7.445312 19.25 -6.625 L 6.4375 -6.625 C 6.925781 -5.800781 7.613281 -5.101562 8.5 -4.53125 C 9.394531 -3.96875 10.363281 -3.6875 11.40625 -3.6875 C 12.4375 -3.6875 13.34375 -3.769531 14.125 -3.9375 C 14.914062 -4.113281 15.660156 -4.332031 16.359375 -4.59375 L 18.015625 -1.515625 C 17.128906 -0.890625 16.113281 -0.40625 14.96875 -0.0625 C 13.820312 0.269531 12.597656 0.4375 11.296875 0.4375 C 9.867188 0.4375 8.539062 0.191406 7.3125 -0.296875 C 6.082031 -0.796875 5.007812 -1.46875 4.09375 -2.3125 C 3.175781 -3.15625 2.453125 -4.15625 1.921875 -5.3125 C 1.390625 -6.476562 1.125 -7.710938 1.125 -9.015625 C 1.125 -10.285156 1.363281 -11.492188 1.84375 -12.640625 C 2.320312 -13.785156 2.988281 -14.785156 3.84375 -15.640625 C 4.707031 -16.503906 5.707031 -17.1875 6.84375 -17.6875 C 7.976562 -18.195312 9.195312 -18.453125 10.5 -18.453125 Z M 14.578125 -10.5 C 14.296875 -11.53125 13.78125 -12.367188 13.03125 -13.015625 C 12.28125 -13.671875 11.4375 -14 10.5 -14 C 9.53125 -14 8.648438 -13.671875 7.859375 -13.015625 C 7.078125 -12.367188 6.546875 -11.53125 6.265625 -10.5 Z M 14.578125 -10.5 " fill="#9da4ae"/></g></g></g><g fill="#141403" fill-opacity="1"><g transform="translate(108.157409, 255.081737)"><g><path d="M 4.445312 -2.359375 C 4.445312 -1.394531 3.890625 -0.839844 2.792969 -0.839844 C 1.828125 -0.839844 1.296875 -1.273438 0.949219 -1.273438 C 0.703125 -1.273438 0.507812 -1.039062 0.507812 -0.789062 C 0.507812 -0.125 1.988281 0.125 2.78125 0.125 C 4.335938 0.125 5.484375 -0.816406 5.484375 -2.445312 C 5.484375 -4.609375 3.445312 -4.632812 2.261719 -5.25 C 1.976562 -5.398438 1.542969 -5.667969 1.542969 -6.484375 C 1.542969 -7.558594 2.296875 -7.867188 3.089844 -7.867188 C 3.929688 -7.867188 4.25 -7.523438 4.632812 -7.523438 C 4.941406 -7.523438 5.125 -7.746094 5.125 -7.992188 C 5.125 -8.683594 3.632812 -8.832031 3.015625 -8.832031 C 1.480469 -8.832031 0.519531 -7.917969 0.519531 -6.421875 C 0.519531 -4.238281 2.570312 -4.222656 3.742188 -3.605469 C 4.050781 -3.445312 4.445312 -3.164062 4.445312 -2.359375 Z M 4.445312 -2.359375 " fill="#9da4ae"/></g></g></g><g fill="#141403" fill-opacity="1"><g transform="translate(116.396968, 255.081737)"><g><path d="M 2.101562 -8.25 C 2.101562 -8.585938 1.839844 -8.84375 1.507812 -8.84375 C 1.171875 -8.84375 0.914062 -8.585938 0.914062 -8.25 C 0.914062 -7.929688 1.171875 -7.660156 1.507812 -7.660156 C 1.839844 -7.660156 2.101562 -7.929688 2.101562 -8.25 Z M 1.988281 -0.382812 L 1.988281 -5.832031 C 1.988281 -6.089844 1.777344 -6.3125 1.507812 -6.3125 C 1.234375 -6.3125 1.023438 -6.089844 1.023438 -5.832031 L 1.023438 -0.382812 C 1.023438 -0.109375 1.234375 0.0976562 1.507812 0.0976562 C 1.777344 0.0976562 1.988281 -0.109375 1.988281 -0.382812 Z M 1.988281 -0.382812 " fill="#9da4ae"/></g></g></g><g fill="#141403" fill-opacity="1"><g transform="translate(121.659804, 255.081737)"><g><path d="M 7.71875 -0.382812 C 7.71875 -0.125 7.882812 0.0859375 8.203125 0.0859375 C 8.523438 0.0859375 8.683594 -0.125 8.683594 -0.382812 L 8.683594 -4.25 C 8.683594 -5.496094 7.953125 -6.347656 6.621094 -6.347656 C 5.929688 -6.347656 5.347656 -6.113281 4.828125 -5.71875 C 4.519531 -6.125 4.078125 -6.347656 3.398438 -6.347656 C 2.753906 -6.347656 2.136719 -6.140625 1.59375 -5.792969 C 1.46875 -5.992188 1.308594 -6.125 1.097656 -6.125 C 0.839844 -6.125 0.640625 -5.941406 0.640625 -5.695312 C 0.640625 -5.570312 0.703125 -5.496094 0.730469 -5.449219 C 0.839844 -5.261719 0.949219 -5.261719 0.949219 -4.582031 L 0.949219 -0.382812 C 0.949219 -0.125 1.113281 0.0859375 1.433594 0.0859375 C 1.753906 0.0859375 1.914062 -0.125 1.914062 -0.382812 L 1.914062 -4.582031 C 1.914062 -4.695312 1.902344 -4.816406 1.878906 -4.964844 C 2.222656 -5.226562 2.765625 -5.460938 3.308594 -5.460938 C 4.1875 -5.460938 4.335938 -4.84375 4.335938 -3.964844 L 4.335938 -0.382812 C 4.335938 -0.125 4.496094 0.0859375 4.816406 0.0859375 C 5.136719 0.0859375 5.300781 -0.125 5.300781 -0.382812 L 5.300781 -4.25 C 5.300781 -4.445312 5.273438 -4.632812 5.238281 -4.804688 C 5.535156 -5.175781 6.066406 -5.460938 6.597656 -5.460938 C 7.351562 -5.460938 7.71875 -4.917969 7.71875 -4.222656 Z M 7.71875 -0.382812 " fill="#9da4ae"/></g></g></g><g fill="#141403" fill-opacity="1"><g transform="translate(133.506025, 255.081737)"><g><path d="M 3.285156 0.0859375 C 4.855469 0.0859375 5.347656 -0.9375 5.347656 -2.410156 L 5.347656 -4.015625 C 5.347656 -5.398438 4.679688 -6.347656 3.382812 -6.347656 C 2.742188 -6.347656 2.136719 -6.101562 1.582031 -5.804688 C 1.457031 -5.980469 1.296875 -6.101562 1.097656 -6.101562 C 0.890625 -6.101562 0.667969 -5.929688 0.667969 -5.667969 C 0.667969 -5.558594 0.703125 -5.496094 0.753906 -5.421875 C 0.902344 -5.199219 0.949219 -4.964844 0.949219 -4.558594 L 0.949219 2.1875 C 0.949219 2.445312 1.125 2.65625 1.433594 2.65625 C 1.742188 2.65625 1.914062 2.445312 1.914062 2.1875 L 1.914062 -0.148438 C 2.359375 0 2.867188 0.0859375 3.285156 0.0859375 Z M 1.914062 -4.558594 C 1.914062 -4.707031 1.890625 -4.878906 1.851562 -5.066406 C 2.273438 -5.324219 2.765625 -5.484375 3.1875 -5.484375 C 4.003906 -5.484375 4.386719 -4.976562 4.386719 -4.015625 L 4.386719 -2.410156 C 4.386719 -1.261719 4.0625 -0.753906 3.164062 -0.753906 C 2.851562 -0.753906 2.308594 -0.828125 1.914062 -1.011719 Z M 1.914062 -4.558594 " fill="#9da4ae"/></g></g></g><g fill="#141403" fill-opacity="1"><g transform="translate(141.646776, 255.081737)"><g><path d="M 0.914062 -1.160156 C 0.914062 -0.0507812 1.382812 0.0976562 1.691406 0.0976562 C 1.9375 0.0976562 2.136719 -0.0976562 2.136719 -0.347656 C 2.136719 -0.445312 2.085938 -0.53125 2.050781 -0.582031 C 1.902344 -0.730469 1.878906 -0.890625 1.878906 -1.160156 L 1.878906 -8.472656 C 1.878906 -8.746094 1.667969 -8.957031 1.394531 -8.957031 C 1.125 -8.957031 0.914062 -8.734375 0.914062 -8.472656 Z M 0.914062 -1.160156 " fill="#9da4ae"/></g></g></g><g fill="#141403" fill-opacity="1"><g transform="translate(146.699637, 255.081737)"><g><path d="M 2.101562 -8.25 C 2.101562 -8.585938 1.839844 -8.84375 1.507812 -8.84375 C 1.171875 -8.84375 0.914062 -8.585938 0.914062 -8.25 C 0.914062 -7.929688 1.171875 -7.660156 1.507812 -7.660156 C 1.839844 -7.660156 2.101562 -7.929688 2.101562 -8.25 Z M 1.988281 -0.382812 L 1.988281 -5.832031 C 1.988281 -6.089844 1.777344 -6.3125 1.507812 -6.3125 C 1.234375 -6.3125 1.023438 -6.089844 1.023438 -5.832031 L 1.023438 -0.382812 C 1.023438 -0.109375 1.234375 0.0976562 1.507812 0.0976562 C 1.777344 0.0976562 1.988281 -0.109375 1.988281 -0.382812 Z M 1.988281 -0.382812 " fill="#9da4ae"/></g></g></g><g fill="#141403" fill-opacity="1"><g transform="translate(151.962474, 255.081737)"><g><path d="M 0.914062 -0.40625 C 0.914062 -0.148438 1.085938 0.0625 1.394531 0.0625 C 1.703125 0.0625 1.878906 -0.148438 1.878906 -0.40625 L 1.878906 -5.050781 L 3.164062 -5.050781 C 3.410156 -5.050781 3.605469 -5.25 3.605469 -5.507812 C 3.605469 -5.769531 3.410156 -5.964844 3.164062 -5.964844 L 1.878906 -5.964844 L 1.878906 -6.730469 C 1.878906 -7.4375 2.25 -8.027344 2.976562 -8.027344 C 3.324219 -8.027344 3.519531 -7.941406 3.730469 -7.941406 C 3.976562 -7.941406 4.199219 -8.117188 4.199219 -8.398438 C 4.199219 -8.96875 3.273438 -8.96875 3.074219 -8.957031 C 1.839844 -8.90625 0.914062 -8.203125 0.914062 -6.632812 Z M 0.914062 -0.40625 " fill="#9da4ae"/></g></g></g><g fill="#141403" fill-opacity="1"><g transform="translate(158.262844, 255.081737)"><g><path d="M 4.902344 -5.683594 C 4.917969 -5.730469 4.929688 -5.78125 4.929688 -5.832031 C 4.929688 -6.113281 4.695312 -6.3125 4.445312 -6.3125 C 4.261719 -6.3125 4.078125 -6.199219 4.003906 -5.992188 L 2.65625 -1.308594 L 1.113281 -5.992188 C 1.039062 -6.199219 0.863281 -6.3125 0.679688 -6.3125 C 0.40625 -6.3125 0.199219 -6.125 0.199219 -5.867188 C 0.199219 -5.816406 0.199219 -5.730469 0.222656 -5.695312 L 2.1875 -0.0234375 C 1.816406 1.125 1.46875 1.542969 0.691406 1.582031 C 0.40625 1.59375 0.234375 1.816406 0.234375 2.039062 C 0.234375 2.308594 0.445312 2.507812 0.730469 2.507812 C 2.335938 2.46875 2.804688 1.148438 3.398438 -0.777344 Z M 4.902344 -5.683594 " fill="#9da4ae"/></g></g></g><g fill="#141403" fill-opacity="1"><g transform="translate(165.588384, 255.081737)"><g/></g></g><g fill="#141403" fill-opacity="1"><g transform="translate(171.530551, 255.081737)"><g><path d="M 2.941406 0.125 C 3.222656 0.125 3.445312 -0.125 3.445312 -0.394531 L 3.445312 -3.398438 L 5.644531 -8.089844 C 5.667969 -8.152344 5.695312 -8.25 5.695312 -8.324219 C 5.695312 -8.597656 5.449219 -8.832031 5.1875 -8.832031 C 5.039062 -8.832031 4.878906 -8.769531 4.804688 -8.632812 L 2.941406 -4.570312 L 1.074219 -8.632812 C 1 -8.769531 0.839844 -8.832031 0.691406 -8.832031 C 0.433594 -8.832031 0.183594 -8.597656 0.183594 -8.324219 C 0.183594 -8.25 0.210938 -8.152344 0.234375 -8.089844 L 2.433594 -3.421875 L 2.433594 -0.394531 C 2.433594 -0.109375 2.65625 0.125 2.941406 0.125 Z M 2.941406 0.125 " fill="#9da4ae"/></g></g></g><g fill="#141403" fill-opacity="1"><g transform="translate(179.646591, 255.081737)"><g><path d="M 2.867188 0.0976562 C 4.371094 0.0976562 5.175781 -0.863281 5.175781 -2.101562 L 5.175781 -4.164062 C 5.175781 -5.398438 4.371094 -6.363281 2.867188 -6.363281 C 1.359375 -6.363281 0.554688 -5.398438 0.554688 -4.164062 L 0.554688 -2.101562 C 0.554688 -0.863281 1.359375 0.0976562 2.867188 0.0976562 Z M 2.867188 -0.789062 C 1.976562 -0.789062 1.519531 -1.285156 1.519531 -2.101562 L 1.519531 -4.175781 C 1.519531 -4.976562 1.976562 -5.472656 2.867188 -5.472656 C 3.753906 -5.472656 4.210938 -4.976562 4.210938 -4.175781 L 4.210938 -2.101562 C 4.210938 -1.285156 3.753906 -0.789062 2.867188 -0.789062 Z M 2.867188 -0.789062 " fill="#9da4ae"/></g></g></g><g fill="#141403" fill-opacity="1"><g transform="translate(187.61442, 255.081737)"><g><path d="M 4.347656 -1.519531 C 4.347656 -1.421875 4.359375 -1.296875 4.371094 -1.171875 C 3.964844 -0.914062 3.496094 -0.765625 3.015625 -0.765625 C 2.273438 -0.765625 1.878906 -1.296875 1.878906 -2.234375 L 1.878906 -5.84375 C 1.878906 -6.101562 1.703125 -6.3125 1.394531 -6.3125 C 1.085938 -6.3125 0.914062 -6.101562 0.914062 -5.84375 L 0.914062 -2.234375 C 0.914062 -0.839844 1.570312 0.0976562 2.878906 0.0976562 C 3.457031 0.0976562 4.089844 -0.0351562 4.632812 -0.347656 C 4.769531 -0.125 4.929688 0.0234375 5.164062 0.0234375 C 5.421875 0.0234375 5.621094 -0.171875 5.621094 -0.40625 C 5.621094 -0.519531 5.558594 -0.605469 5.535156 -0.65625 C 5.433594 -0.839844 5.3125 -0.839844 5.3125 -1.519531 L 5.3125 -5.84375 C 5.3125 -6.101562 5.152344 -6.3125 4.828125 -6.3125 C 4.507812 -6.3125 4.347656 -6.101562 4.347656 -5.84375 Z M 4.347656 -1.519531 " fill="#9da4ae"/></g></g></g><g fill="#141403" fill-opacity="1"><g transform="translate(196.138065, 255.081737)"><g><path d="M 1.914062 -4.558594 C 1.914062 -4.65625 1.902344 -4.769531 1.890625 -4.890625 C 2.507812 -5.347656 2.953125 -5.347656 3.457031 -5.335938 C 3.71875 -5.324219 3.941406 -5.523438 3.941406 -5.832031 C 3.941406 -6.089844 3.792969 -6.300781 3.296875 -6.300781 C 2.828125 -6.300781 2.136719 -6.101562 1.605469 -5.769531 C 1.480469 -5.964844 1.308594 -6.101562 1.113281 -6.101562 C 0.878906 -6.101562 0.667969 -5.929688 0.667969 -5.667969 C 0.667969 -5.558594 0.703125 -5.496094 0.753906 -5.421875 C 0.902344 -5.199219 0.949219 -4.964844 0.949219 -4.558594 L 0.949219 -0.382812 C 0.949219 -0.109375 1.160156 0.0976562 1.433594 0.0976562 C 1.703125 0.0976562 1.914062 -0.109375 1.914062 -0.382812 Z M 1.914062 -4.558594 " fill="#9da4ae"/></g></g></g><g fill="#141403" fill-opacity="1"><g transform="translate(202.53724, 255.081737)"><g/></g></g><g fill="#141403" fill-opacity="1"><g transform="translate(208.479412, 255.081737)"><g><path d="M 3.855469 -8.339844 C 3.855469 -8.597656 3.621094 -8.832031 3.359375 -8.832031 C 3.074219 -8.832031 2.867188 -8.609375 2.867188 -8.339844 L 2.867188 -2.78125 C 2.867188 -1.582031 2.632812 -0.828125 1.496094 -0.828125 C 1.113281 -0.828125 0.878906 -0.914062 0.742188 -0.914062 C 0.554688 -0.914062 0.308594 -0.742188 0.308594 -0.433594 C 0.308594 0.0859375 1.011719 0.125 1.359375 0.125 C 3.273438 0.125 3.855469 -0.976562 3.855469 -2.78125 Z M 3.855469 -8.339844 " fill="#9da4ae"/></g></g></g><g fill="#141403" fill-opacity="1"><g transform="translate(215.471466, 255.081737)"><g><path d="M 2.867188 0.0976562 C 4.371094 0.0976562 5.175781 -0.863281 5.175781 -2.101562 L 5.175781 -4.164062 C 5.175781 -5.398438 4.371094 -6.363281 2.867188 -6.363281 C 1.359375 -6.363281 0.554688 -5.398438 0.554688 -4.164062 L 0.554688 -2.101562 C 0.554688 -0.863281 1.359375 0.0976562 2.867188 0.0976562 Z M 2.867188 -0.789062 C 1.976562 -0.789062 1.519531 -1.285156 1.519531 -2.101562 L 1.519531 -4.175781 C 1.519531 -4.976562 1.976562 -5.472656 2.867188 -5.472656 C 3.753906 -5.472656 4.210938 -4.976562 4.210938 -4.175781 L 4.210938 -2.101562 C 4.210938 -1.285156 3.753906 -0.789062 2.867188 -0.789062 Z M 2.867188 -0.789062 " fill="#9da4ae"/></g></g></g><g fill="#141403" fill-opacity="1"><g transform="translate(223.4393, 255.081737)"><g><path d="M 4.347656 -1.519531 C 4.347656 -1.421875 4.359375 -1.296875 4.371094 -1.171875 C 3.964844 -0.914062 3.496094 -0.765625 3.015625 -0.765625 C 2.273438 -0.765625 1.878906 -1.296875 1.878906 -2.234375 L 1.878906 -5.84375 C 1.878906 -6.101562 1.703125 -6.3125 1.394531 -6.3125 C 1.085938 -6.3125 0.914062 -6.101562 0.914062 -5.84375 L 0.914062 -2.234375 C 0.914062 -0.839844 1.570312 0.0976562 2.878906 0.0976562 C 3.457031 0.0976562 4.089844 -0.0351562 4.632812 -0.347656 C 4.769531 -0.125 4.929688 0.0234375 5.164062 0.0234375 C 5.421875 0.0234375 5.621094 -0.171875 5.621094 -0.40625 C 5.621094 -0.519531 5.558594 -0.605469 5.535156 -0.65625 C 5.433594 -0.839844 5.3125 -0.839844 5.3125 -1.519531 L 5.3125 -5.84375 C 5.3125 -6.101562 5.152344 -6.3125 4.828125 -6.3125 C 4.507812 -6.3125 4.347656 -6.101562 4.347656 -5.84375 Z M 4.347656 -1.519531 " fill="#9da4ae"/></g></g></g><g fill="#141403" fill-opacity="1"><g transform="translate(231.96295, 255.081737)"><g><path d="M 1.914062 -4.558594 C 1.914062 -4.65625 1.902344 -4.769531 1.890625 -4.890625 C 2.507812 -5.347656 2.953125 -5.347656 3.457031 -5.335938 C 3.71875 -5.324219 3.941406 -5.523438 3.941406 -5.832031 C 3.941406 -6.089844 3.792969 -6.300781 3.296875 -6.300781 C 2.828125 -6.300781 2.136719 -6.101562 1.605469 -5.769531 C 1.480469 -5.964844 1.308594 -6.101562 1.113281 -6.101562 C 0.878906 -6.101562 0.667969 -5.929688 0.667969 -5.667969 C 0.667969 -5.558594 0.703125 -5.496094 0.753906 -5.421875 C 0.902344 -5.199219 0.949219 -4.964844 0.949219 -4.558594 L 0.949219 -0.382812 C 0.949219 -0.109375 1.160156 0.0976562 1.433594 0.0976562 C 1.703125 0.0976562 1.914062 -0.109375 1.914062 -0.382812 Z M 1.914062 -4.558594 " fill="#9da4ae"/></g></g></g><g fill="#141403" fill-opacity="1"><g transform="translate(238.362131, 255.081737)"><g><path d="M 1.914062 -4.582031 C 1.914062 -4.679688 1.902344 -4.804688 1.878906 -4.941406 C 2.296875 -5.261719 2.765625 -5.460938 3.25 -5.460938 C 3.988281 -5.460938 4.386719 -4.929688 4.386719 -3.988281 L 4.386719 -0.382812 C 4.386719 -0.125 4.558594 0.0859375 4.867188 0.0859375 C 5.175781 0.0859375 5.347656 -0.125 5.347656 -0.382812 L 5.347656 -3.988281 C 5.347656 -5.386719 4.695312 -6.324219 3.382812 -6.324219 C 2.792969 -6.324219 2.160156 -6.152344 1.617188 -5.769531 C 1.480469 -5.980469 1.320312 -6.125 1.097656 -6.125 C 0.839844 -6.125 0.640625 -5.941406 0.640625 -5.695312 C 0.640625 -5.570312 0.703125 -5.496094 0.730469 -5.449219 C 0.839844 -5.261719 0.949219 -5.261719 0.949219 -4.582031 L 0.949219 -0.382812 C 0.949219 -0.125 1.113281 0.0859375 1.433594 0.0859375 C 1.753906 0.0859375 1.914062 -0.125 1.914062 -0.382812 Z M 1.914062 -4.582031 " fill="#9da4ae"/></g></g></g><g fill="#141403" fill-opacity="1"><g transform="translate(246.885782, 255.081737)"><g><path d="M 2.867188 -0.753906 C 1.976562 -0.753906 1.519531 -1.199219 1.519531 -1.890625 L 1.519531 -2.617188 C 1.953125 -2.542969 2.410156 -2.507812 2.78125 -2.507812 C 4.25 -2.507812 4.867188 -3.199219 4.867188 -4.335938 C 4.867188 -5.558594 4.1875 -6.347656 2.816406 -6.347656 C 1.347656 -6.347656 0.554688 -5.449219 0.554688 -4.261719 L 0.554688 -1.953125 C 0.554688 -0.789062 1.359375 0.0976562 2.753906 0.0976562 C 3.421875 0.0976562 4.753906 -0.0976562 4.753906 -0.703125 C 4.753906 -0.925781 4.570312 -1.136719 4.324219 -1.136719 C 4.238281 -1.136719 4.175781 -1.113281 4.152344 -1.097656 C 3.71875 -0.902344 3.382812 -0.753906 2.867188 -0.753906 Z M 3.914062 -4.335938 C 3.914062 -3.828125 3.753906 -3.324219 2.816406 -3.324219 C 2.570312 -3.324219 1.976562 -3.347656 1.519531 -3.410156 L 1.519531 -4.347656 C 1.519531 -5.039062 1.988281 -5.472656 2.792969 -5.472656 C 3.507812 -5.472656 3.914062 -5.136719 3.914062 -4.335938 Z M 3.914062 -4.335938 " fill="#9da4ae"/></g></g></g><g fill="#141403" fill-opacity="1"><g transform="translate(254.495416, 255.081737)"><g><path d="M 4.902344 -5.683594 C 4.917969 -5.730469 4.929688 -5.78125 4.929688 -5.832031 C 4.929688 -6.113281 4.695312 -6.3125 4.445312 -6.3125 C 4.261719 -6.3125 4.078125 -6.199219 4.003906 -5.992188 L 2.65625 -1.308594 L 1.113281 -5.992188 C 1.039062 -6.199219 0.863281 -6.3125 0.679688 -6.3125 C 0.40625 -6.3125 0.199219 -6.125 0.199219 -5.867188 C 0.199219 -5.816406 0.199219 -5.730469 0.222656 -5.695312 L 2.1875 -0.0234375 C 1.816406 1.125 1.46875 1.542969 0.691406 1.582031 C 0.40625 1.59375 0.234375 1.816406 0.234375 2.039062 C 0.234375 2.308594 0.445312 2.507812 0.730469 2.507812 C 2.335938 2.46875 2.804688 1.148438 3.398438 -0.777344 Z M 4.902344 -5.683594 " fill="#9da4ae"/></g></g></g><g fill="#141403" fill-opacity="1"><g transform="translate(261.820962, 255.081737)"><g><path d="M 0.65625 -4.570312 C 0.65625 -2.941406 2.296875 -2.851562 3.074219 -2.433594 C 3.324219 -2.296875 3.53125 -2.113281 3.53125 -1.667969 C 3.53125 -1.023438 3.074219 -0.753906 2.394531 -0.753906 C 1.902344 -0.753906 1.507812 -0.902344 1.160156 -1.039062 C 1.125 -1.050781 1.113281 -1.0625 1.039062 -1.0625 C 0.742188 -1.0625 0.582031 -0.828125 0.582031 -0.617188 C 0.582031 -0.0507812 1.765625 0.0976562 2.394531 0.0976562 C 3.765625 0.0976562 4.472656 -0.59375 4.472656 -1.703125 C 4.472656 -3.308594 3.027344 -3.421875 2.175781 -3.839844 C 1.753906 -4.050781 1.59375 -4.25 1.59375 -4.632812 C 1.59375 -5.199219 1.9375 -5.496094 2.691406 -5.496094 C 3.136719 -5.496094 3.371094 -5.398438 3.632812 -5.273438 C 3.707031 -5.238281 3.765625 -5.210938 3.855469 -5.210938 C 4.113281 -5.210938 4.296875 -5.421875 4.296875 -5.65625 C 4.296875 -6.175781 3.296875 -6.347656 2.65625 -6.347656 C 1.347656 -6.347656 0.65625 -5.632812 0.65625 -4.570312 Z M 0.65625 -4.570312 " fill="#9da4ae"/></g></g></g><g clip-path="url(#2b2223e911)"><path fill="#9da4ae" d="M 227.773438 145.871094 L 227.773438 130.859375 C 227.773438 122.613281 221.078125 115.902344 212.847656 115.902344 L 162.054688 115.902344 C 153.824219 115.902344 147.128906 122.613281 147.128906 130.859375 L 147.128906 145.871094 C 140.324219 147.839844 135.328125 154.125 135.328125 161.570312 L 135.328125 179.199219 C 135.328125 184.046875 139.265625 187.992188 144.105469 187.992188 L 144.527344 187.992188 L 144.527344 197.296875 C 144.527344 200.792969 147.367188 203.640625 150.859375 203.640625 L 156.558594 203.640625 C 160.050781 203.640625 162.890625 200.792969 162.890625 197.296875 L 162.890625 187.992188 L 212.011719 187.992188 L 212.011719 197.296875 C 212.011719 200.792969 214.851562 203.640625 218.34375 203.640625 L 224.042969 203.640625 C 227.535156 203.640625 230.375 200.792969 230.375 197.296875 L 230.375 187.992188 L 230.796875 187.992188 C 235.636719 187.992188 239.574219 184.046875 239.574219 179.199219 L 239.574219 161.570312 C 239.574219 154.125 234.578125 147.839844 227.773438 145.871094 Z M 151.761719 130.859375 C 151.761719 125.171875 156.378906 120.546875 162.054688 120.546875 L 212.847656 120.546875 C 218.523438 120.546875 223.140625 125.171875 223.140625 130.859375 L 223.140625 145.21875 L 203.363281 145.21875 L 207.304688 141.269531 C 208.210938 140.363281 208.210938 138.894531 207.304688 137.988281 C 206.402344 137.082031 204.9375 137.082031 204.03125 137.988281 L 196.8125 145.21875 L 172.761719 145.21875 L 176.703125 141.269531 C 177.609375 140.363281 177.609375 138.894531 176.703125 137.988281 C 175.800781 137.082031 174.332031 137.082031 173.429688 137.988281 L 166.210938 145.21875 L 151.761719 145.21875 Z M 158.257812 197.296875 C 158.257812 198.234375 157.496094 198.996094 156.558594 198.996094 L 150.859375 198.996094 C 149.921875 198.996094 149.160156 198.234375 149.160156 197.296875 L 149.160156 187.992188 L 158.257812 187.992188 Z M 225.742188 197.296875 C 225.742188 198.234375 224.980469 198.996094 224.042969 198.996094 L 218.34375 198.996094 C 217.40625 198.996094 216.644531 198.234375 216.644531 197.296875 L 216.644531 187.992188 L 225.742188 187.992188 Z M 234.941406 179.199219 C 234.941406 181.488281 233.082031 183.351562 230.796875 183.351562 L 144.105469 183.351562 C 141.820312 183.351562 139.960938 181.488281 139.960938 179.199219 L 139.960938 161.570312 C 139.960938 155.117188 145.203125 149.863281 151.644531 149.863281 L 223.257812 149.863281 C 229.699219 149.863281 234.941406 155.117188 234.941406 161.570312 Z M 234.941406 179.199219 " fill-opacity="1" fill-rule="nonzero"/></g><path fill="#9da4ae" d="M 197.1875 127.511719 L 200.578125 127.511719 C 201.859375 127.511719 202.894531 126.472656 202.894531 125.1875 C 202.894531 123.90625 201.859375 122.867188 200.578125 122.867188 L 197.1875 122.867188 C 195.910156 122.867188 194.871094 123.90625 194.871094 125.191406 C 194.871094 126.472656 195.910156 127.511719 197.1875 127.511719 Z M 197.1875 127.511719 " fill-opacity="1" fill-rule="nonzero"/><path fill="#9da4ae" d="M 207.722656 127.511719 L 212.847656 127.511719 C 214.539062 127.511719 215.964844 128.777344 216.167969 130.457031 C 216.304688 131.640625 217.304688 132.503906 218.464844 132.503906 C 218.554688 132.503906 218.648438 132.5 218.742188 132.488281 C 220.011719 132.335938 220.917969 131.183594 220.765625 129.910156 C 220.289062 125.894531 216.882812 122.867188 212.847656 122.867188 L 207.722656 122.867188 C 206.441406 122.867188 205.40625 123.90625 205.40625 125.191406 C 205.40625 126.472656 206.441406 127.511719 207.722656 127.511719 Z M 207.722656 127.511719 " fill-opacity="1" fill-rule="nonzero"/><path fill="#9da4ae" d="M 153.710938 159.609375 C 148.644531 159.609375 144.527344 163.738281 144.527344 168.8125 C 144.527344 173.882812 148.644531 178.011719 153.710938 178.011719 C 158.773438 178.011719 162.890625 173.882812 162.890625 168.8125 C 162.890625 163.738281 158.769531 159.609375 153.710938 159.609375 Z M 153.710938 173.367188 C 151.199219 173.367188 149.160156 171.324219 149.160156 168.8125 C 149.160156 166.296875 151.199219 164.253906 153.710938 164.253906 C 156.21875 164.253906 158.257812 166.296875 158.257812 168.8125 C 158.257812 171.324219 156.214844 173.367188 153.710938 173.367188 Z M 153.710938 173.367188 " fill-opacity="1" fill-rule="nonzero"/><path fill="#9da4ae" d="M 221.191406 159.609375 C 216.128906 159.609375 212.011719 163.738281 212.011719 168.8125 C 212.011719 173.882812 216.128906 178.011719 221.191406 178.011719 C 226.257812 178.011719 230.375 173.882812 230.375 168.8125 C 230.375 163.738281 226.257812 159.609375 221.191406 159.609375 Z M 221.191406 173.367188 C 218.683594 173.367188 216.644531 171.324219 216.644531 168.8125 C 216.644531 166.296875 218.683594 164.253906 221.191406 164.253906 C 223.703125 164.253906 225.742188 166.296875 225.742188 168.8125 C 225.742188 171.324219 223.703125 173.367188 221.191406 173.367188 Z M 221.191406 173.367188 " fill-opacity="1" fill-rule="nonzero"/><path fill="#9da4ae" d="M 172.585938 166.15625 L 177.894531 166.15625 C 179.175781 166.15625 180.210938 165.117188 180.210938 163.835938 C 180.210938 162.554688 179.175781 161.511719 177.894531 161.511719 L 172.585938 161.511719 C 171.308594 161.511719 170.269531 162.554688 170.269531 163.835938 C 170.269531 165.117188 171.308594 166.15625 172.585938 166.15625 Z M 172.585938 166.15625 " fill-opacity="1" fill-rule="nonzero"/><path fill="#9da4ae" d="M 202.316406 161.511719 L 186.003906 161.511719 C 184.722656 161.511719 183.6875 162.554688 183.6875 163.835938 C 183.6875 165.117188 184.722656 166.15625 186.003906 166.15625 L 202.316406 166.15625 C 203.59375 166.15625 204.632812 165.117188 204.632812 163.835938 C 204.632812 162.554688 203.59375 161.511719 202.316406 161.511719 Z M 202.316406 161.511719 " fill-opacity="1" fill-rule="nonzero"/><path fill="#9da4ae" d="M 202.316406 170.21875 L 172.585938 170.21875 C 171.308594 170.21875 170.269531 171.257812 170.269531 172.539062 C 170.269531 173.824219 171.308594 174.863281 172.585938 174.863281 L 202.316406 174.863281 C 203.59375 174.863281 204.632812 173.824219 204.632812 172.539062 C 204.632812 171.257812 203.59375 170.21875 202.316406 170.21875 Z M 202.316406 170.21875 " fill-opacity="1" fill-rule="nonzero"/><path fill="#9da4ae" d="M 156.757812 134.089844 C 155.476562 134.089844 154.441406 135.132812 154.441406 136.414062 L 154.441406 140.765625 C 154.441406 142.046875 155.476562 143.085938 156.757812 143.085938 C 158.035156 143.085938 159.074219 142.046875 159.074219 140.765625 L 159.074219 136.414062 C 159.074219 135.132812 158.035156 134.089844 156.757812 134.089844 Z M 156.757812 134.089844 " fill-opacity="1" fill-rule="nonzero"/></svg>